<?xml version="1.0" encoding="UTF-8" standalone="no"?>
<!-- Generator: Adobe Illustrator 15.1.0, SVG Export Plug-In . SVG Version: 6.00 Build 0)  -->

<svg
   xmlns:dc="http://purl.org/dc/elements/1.1/"
   xmlns:cc="http://creativecommons.org/ns#"
   xmlns:rdf="http://www.w3.org/1999/02/22-rdf-syntax-ns#"
   xmlns:svg="http://www.w3.org/2000/svg"
   xmlns="http://www.w3.org/2000/svg"
   xmlns:sodipodi="http://sodipodi.sourceforge.net/DTD/sodipodi-0.dtd"
   xmlns:inkscape="http://www.inkscape.org/namespaces/inkscape"
   version="1.1"
   id="svg3816"
   sodipodi:docname="Grass.svg"
   inkscape:version="0.48.4 r9939"
   inkscape:export-filename="/home/thomas/NetBeansProjects/Bona-Bellum/Grass.png"
   inkscape:export-xdpi="90"
   inkscape:export-ydpi="90"
   x="0px"
   y="0px"
   width="50px"
   height="50px"
   viewBox="0 0 50 50"
   enable-background="new 0 0 50 50"
   xml:space="preserve"><metadata
     id="metadata5477"><rdf:RDF><cc:Work
         rdf:about=""><dc:format>image/svg+xml</dc:format><dc:type
           rdf:resource="http://purl.org/dc/dcmitype/StillImage" /><dc:title /></cc:Work></rdf:RDF></metadata><defs
     id="defs5475"><filter
       id="filter6040"
       inkscape:label="Leaves"
       inkscape:menu="Scatter"
       inkscape:menu-tooltip="Leaves on the ground in Fall, or living foliage"
       color-interpolation-filters="sRGB"><feTurbulence
         id="feTurbulence6042"
         baseFrequency="0.09"
         numOctaves="5"
         type="fractalNoise"
         result="result6" /><feColorMatrix
         id="feColorMatrix6044"
         values="1 0 0 0 0 0 1 0 0 0 0 0 1 0 0 0 0 0 4.9 -2.9 "
         result="result5"
         in="result6" /><feComposite
         id="feComposite6046"
         in2="result5"
         operator="in"
         in="SourceGraphic" /><feMorphology
         id="feMorphology6048"
         result="result3"
         radius="6"
         operator="dilate" /><feTurbulence
         id="feTurbulence6050"
         baseFrequency="0.2"
         numOctaves="1"
         type="fractalNoise"
         result="result91" /><feDisplacementMap
         id="feDisplacementMap6052"
         in2="result91"
         result="result4"
         scale="15"
         yChannelSelector="G"
         xChannelSelector="R"
         in="result3" /><feComposite
         id="feComposite6054"
         in2="result4"
         operator="arithmetic"
         result="result2"
         k1="0.5"
         k3="1" /><feConvolveMatrix
         id="feConvolveMatrix6056"
         order="3 3"
         kernelMatrix="1 0 0 0 2 0 0 0 -1 "
         targetX="0"
         targetY="0"
         divisor="1.5"
         edgeMode="duplicate"
         in="result2" /></filter></defs><sodipodi:namedview
     id="base"
     pagecolor="#ffffff"
     bordercolor="#666666"
     borderopacity="1.0"
     inkscape:pageopacity="0.0"
     inkscape:zoom="12.941176"
     inkscape:pageshadow="2"
     inkscape:cx="25.154545"
     inkscape:cy="25"
     inkscape:document-units="px"
     inkscape:current-layer="svg3816"
     showgrid="true"
     inkscape:window-width="1600"
     inkscape:window-height="829"
     inkscape:window-x="0"
     inkscape:window-y="24"
     inkscape:window-maximized="1"
     inkscape:snap-global="false"><inkscape:grid
       type="xygrid"
       id="grid3805" /></sodipodi:namedview><rect
     width="49.019608"
     height="49.019608"
     id="rect5473"
     inkscape:export-xdpi="90"
     inkscape:export-ydpi="90"
     x="0.49019608"
     y="0.49019599"
     style="fill:#60b941;stroke:#61b846;stroke-width:0.98039216" /><path
     sodipodi:type="spiral"
     style="fill:#60b842;fill-opacity:1;stroke:#008000;stroke-width:1px;stroke-linecap:butt;stroke-linejoin:miter;stroke-opacity:1"
     id="path3010"
     sodipodi:cx="9.6503239"
     sodipodi:cy="6.0252304"
     sodipodi:expansion="1.24"
     sodipodi:revolution="2.1055961"
     sodipodi:radius="2.3477123"
     sodipodi:argument="-167.78476"
     sodipodi:t0="0"
     d="M 9.6503239,6.0252304 C 9.6238064,6.1139472 9.5077373,6.021614 9.4901752,5.9773619 9.4217397,5.8049223 9.6111292,5.6600093 9.7633885,5.6469615 10.072718,5.6204538 10.2851,5.9291968 10.275718,6.2121608 10.260672,6.6659455 9.8089529,6.9595156 9.3832669,6.918696 8.7762618,6.8604893 8.3942157,6.2510355 8.4720501,5.6730442 8.5754741,4.9050264 9.3535209,4.4291872 10.091851,4.5480587 11.027728,4.6987355 11.601706,5.6541464 11.438643,6.5597592 11.23881,7.6695853 10.098577,8.3454426 9.0195392,8.1355829 8.5212296,8.0386678 8.0658205,7.7676185 7.7353101,7.383345"
     transform="matrix(1.0542267,0,0,1.0794506,-2.6213884,35.643552)" /><path
     transform="matrix(1.0542267,0,0,1.0794506,14.878611,15.643553)"
     sodipodi:type="spiral"
     style="fill:#60b842;fill-opacity:1;stroke:#008000;stroke-width:1px;stroke-linecap:butt;stroke-linejoin:miter;stroke-opacity:1"
     id="path3010-1"
     sodipodi:cx="9.6503239"
     sodipodi:cy="6.0252304"
     sodipodi:expansion="1.24"
     sodipodi:revolution="2.1055961"
     sodipodi:radius="2.3477123"
     sodipodi:argument="-167.78476"
     sodipodi:t0="0"
     d="M 9.6503239,6.0252304 C 9.6238064,6.1139472 9.5077373,6.021614 9.4901752,5.9773619 9.4217397,5.8049223 9.6111292,5.6600093 9.7633885,5.6469615 10.072718,5.6204538 10.2851,5.9291968 10.275718,6.2121608 10.260672,6.6659455 9.8089529,6.9595156 9.3832669,6.918696 8.7762618,6.8604893 8.3942157,6.2510355 8.4720501,5.6730442 8.5754741,4.9050264 9.3535209,4.4291872 10.091851,4.5480587 11.027728,4.6987355 11.601706,5.6541464 11.438643,6.5597592 11.23881,7.6695853 10.098577,8.3454426 9.0195392,8.1355829 8.5212296,8.0386678 8.0658205,7.7676185 7.7353101,7.383345" /><path
     transform="matrix(1.0542267,0,0,1.0794506,32.378611,35.643553)"
     sodipodi:type="spiral"
     style="fill:#60b842;fill-opacity:1;stroke:#008000;stroke-width:1px;stroke-linecap:butt;stroke-linejoin:miter;stroke-opacity:1"
     id="path3010-11"
     sodipodi:cx="9.6503239"
     sodipodi:cy="6.0252304"
     sodipodi:expansion="1.24"
     sodipodi:revolution="2.1055961"
     sodipodi:radius="2.3477123"
     sodipodi:argument="-167.78476"
     sodipodi:t0="0"
     d="M 9.6503239,6.0252304 C 9.6238064,6.1139472 9.5077373,6.021614 9.4901752,5.9773619 9.4217397,5.8049223 9.6111292,5.6600093 9.7633885,5.6469615 10.072718,5.6204538 10.2851,5.9291968 10.275718,6.2121608 10.260672,6.6659455 9.8089529,6.9595156 9.3832669,6.918696 8.7762618,6.8604893 8.3942157,6.2510355 8.4720501,5.6730442 8.5754741,4.9050264 9.3535209,4.4291872 10.091851,4.5480587 11.027728,4.6987355 11.601706,5.6541464 11.438643,6.5597592 11.23881,7.6695853 10.098577,8.3454426 9.0195392,8.1355829 8.5212296,8.0386678 8.0658205,7.7676185 7.7353101,7.383345" /><path
     transform="matrix(1.0542267,0,0,1.0794506,32.378611,0.64355226)"
     sodipodi:type="spiral"
     style="fill:#60b842;fill-opacity:1;stroke:#008000;stroke-width:1px;stroke-linecap:butt;stroke-linejoin:miter;stroke-opacity:1"
     id="path3010-7"
     sodipodi:cx="9.6503239"
     sodipodi:cy="6.0252304"
     sodipodi:expansion="1.24"
     sodipodi:revolution="2.1055961"
     sodipodi:radius="2.3477123"
     sodipodi:argument="-167.78476"
     sodipodi:t0="0"
     d="M 9.6503239,6.0252304 C 9.6238064,6.1139472 9.5077373,6.021614 9.4901752,5.9773619 9.4217397,5.8049223 9.6111292,5.6600093 9.7633885,5.6469615 10.072718,5.6204538 10.2851,5.9291968 10.275718,6.2121608 10.260672,6.6659455 9.8089529,6.9595156 9.3832669,6.918696 8.7762618,6.8604893 8.3942157,6.2510355 8.4720501,5.6730442 8.5754741,4.9050264 9.3535209,4.4291872 10.091851,4.5480587 11.027728,4.6987355 11.601706,5.6541464 11.438643,6.5597592 11.23881,7.6695853 10.098577,8.3454426 9.0195392,8.1355829 8.5212296,8.0386678 8.0658205,7.7676185 7.7353101,7.383345" /><path
     transform="matrix(1.0542267,0,0,1.0794506,-2.6213884,0.64355249)"
     sodipodi:type="spiral"
     style="fill:#60b842;fill-opacity:1;stroke:#008000;stroke-width:1px;stroke-linecap:butt;stroke-linejoin:miter;stroke-opacity:1"
     id="path3010-11-6"
     sodipodi:cx="9.6503239"
     sodipodi:cy="6.0252304"
     sodipodi:expansion="1.24"
     sodipodi:revolution="2.1055961"
     sodipodi:radius="2.3477123"
     sodipodi:argument="-167.78476"
     sodipodi:t0="0"
     d="M 9.6503239,6.0252304 C 9.6238064,6.1139472 9.5077373,6.021614 9.4901752,5.9773619 9.4217397,5.8049223 9.6111292,5.6600093 9.7633885,5.6469615 10.072718,5.6204538 10.2851,5.9291968 10.275718,6.2121608 10.260672,6.6659455 9.8089529,6.9595156 9.3832669,6.918696 8.7762618,6.8604893 8.3942157,6.2510355 8.4720501,5.6730442 8.5754741,4.9050264 9.3535209,4.4291872 10.091851,4.5480587 11.027728,4.6987355 11.601706,5.6541464 11.438643,6.5597592 11.23881,7.6695853 10.098577,8.3454426 9.0195392,8.1355829 8.5212296,8.0386678 8.0658205,7.7676185 7.7353101,7.383345" /><path
     transform="matrix(1.0542267,0,0,1.0794506,-2.6213884,15.643552)"
     sodipodi:type="spiral"
     style="fill:#60b842;fill-opacity:1;stroke:#008000;stroke-width:1px;stroke-linecap:butt;stroke-linejoin:miter;stroke-opacity:1"
     id="path3010-1-8"
     sodipodi:cx="9.6503239"
     sodipodi:cy="6.0252304"
     sodipodi:expansion="1.24"
     sodipodi:revolution="2.1055961"
     sodipodi:radius="2.3477123"
     sodipodi:argument="-167.78476"
     sodipodi:t0="0"
     d="M 9.6503239,6.0252304 C 9.6238064,6.1139472 9.5077373,6.021614 9.4901752,5.9773619 9.4217397,5.8049223 9.6111292,5.6600093 9.7633885,5.6469615 10.072718,5.6204538 10.2851,5.9291968 10.275718,6.2121608 10.260672,6.6659455 9.8089529,6.9595156 9.3832669,6.918696 8.7762618,6.8604893 8.3942157,6.2510355 8.4720501,5.6730442 8.5754741,4.9050264 9.3535209,4.4291872 10.091851,4.5480587 11.027728,4.6987355 11.601706,5.6541464 11.438643,6.5597592 11.23881,7.6695853 10.098577,8.3454426 9.0195392,8.1355829 8.5212296,8.0386678 8.0658205,7.7676185 7.7353101,7.383345" /><path
     transform="matrix(1.0542267,0,0,1.0794506,32.378612,15.643552)"
     sodipodi:type="spiral"
     style="fill:#60b842;fill-opacity:1;stroke:#008000;stroke-width:1px;stroke-linecap:butt;stroke-linejoin:miter;stroke-opacity:1"
     id="path3010-1-0"
     sodipodi:cx="9.6503239"
     sodipodi:cy="6.0252304"
     sodipodi:expansion="1.24"
     sodipodi:revolution="2.1055961"
     sodipodi:radius="2.3477123"
     sodipodi:argument="-167.78476"
     sodipodi:t0="0"
     d="M 9.6503239,6.0252304 C 9.6238064,6.1139472 9.5077373,6.021614 9.4901752,5.9773619 9.4217397,5.8049223 9.6111292,5.6600093 9.7633885,5.6469615 10.072718,5.6204538 10.2851,5.9291968 10.275718,6.2121608 10.260672,6.6659455 9.8089529,6.9595156 9.3832669,6.918696 8.7762618,6.8604893 8.3942157,6.2510355 8.4720501,5.6730442 8.5754741,4.9050264 9.3535209,4.4291872 10.091851,4.5480587 11.027728,4.6987355 11.601706,5.6541464 11.438643,6.5597592 11.23881,7.6695853 10.098577,8.3454426 9.0195392,8.1355829 8.5212296,8.0386678 8.0658205,7.7676185 7.7353101,7.383345" /><path
     transform="matrix(1.0542267,0,0,1.0794506,14.878612,35.643552)"
     sodipodi:type="spiral"
     style="fill:#60b842;fill-opacity:1;stroke:#008000;stroke-width:1px;stroke-linecap:butt;stroke-linejoin:miter;stroke-opacity:1"
     id="path3010-1-4"
     sodipodi:cx="9.6503239"
     sodipodi:cy="6.0252304"
     sodipodi:expansion="1.24"
     sodipodi:revolution="2.1055961"
     sodipodi:radius="2.3477123"
     sodipodi:argument="-167.78476"
     sodipodi:t0="0"
     d="M 9.6503239,6.0252304 C 9.6238064,6.1139472 9.5077373,6.021614 9.4901752,5.9773619 9.4217397,5.8049223 9.6111292,5.6600093 9.7633885,5.6469615 10.072718,5.6204538 10.2851,5.9291968 10.275718,6.2121608 10.260672,6.6659455 9.8089529,6.9595156 9.3832669,6.918696 8.7762618,6.8604893 8.3942157,6.2510355 8.4720501,5.6730442 8.5754741,4.9050264 9.3535209,4.4291872 10.091851,4.5480587 11.027728,4.6987355 11.601706,5.6541464 11.438643,6.5597592 11.23881,7.6695853 10.098577,8.3454426 9.0195392,8.1355829 8.5212296,8.0386678 8.0658205,7.7676185 7.7353101,7.383345" /><path
     transform="matrix(1.0542267,0,0,1.0794506,14.878612,0.64355249)"
     sodipodi:type="spiral"
     style="fill:#60b842;fill-opacity:1;stroke:#008000;stroke-width:1px;stroke-linecap:butt;stroke-linejoin:miter;stroke-opacity:1"
     id="path3010-1-3"
     sodipodi:cx="9.6503239"
     sodipodi:cy="6.0252304"
     sodipodi:expansion="1.24"
     sodipodi:revolution="2.1055961"
     sodipodi:radius="2.3477123"
     sodipodi:argument="-167.78476"
     sodipodi:t0="0"
     d="M 9.6503239,6.0252304 C 9.6238064,6.1139472 9.5077373,6.021614 9.4901752,5.9773619 9.4217397,5.8049223 9.6111292,5.6600093 9.7633885,5.6469615 10.072718,5.6204538 10.2851,5.9291968 10.275718,6.2121608 10.260672,6.6659455 9.8089529,6.9595156 9.3832669,6.918696 8.7762618,6.8604893 8.3942157,6.2510355 8.4720501,5.6730442 8.5754741,4.9050264 9.3535209,4.4291872 10.091851,4.5480587 11.027728,4.6987355 11.601706,5.6541464 11.438643,6.5597592 11.23881,7.6695853 10.098577,8.3454426 9.0195392,8.1355829 8.5212296,8.0386678 8.0658205,7.7676185 7.7353101,7.383345" /></svg>