<?xml version="1.0" encoding="utf-8"?>
<!-- Generator: Adobe Illustrator 15.1.0, SVG Export Plug-In . SVG Version: 6.00 Build 0)  -->
<!DOCTYPE svg PUBLIC "-//W3C//DTD SVG 1.1//EN" "http://www.w3.org/Graphics/SVG/1.1/DTD/svg11.dtd">
<svg version="1.1"
	 id="svg2" sodipodi:docname="Sand.svg" inkscape:version="0.48.4 r9939" inkscape:export-filename="/home/thomas/NetBeansProjects/Bona-Bellum/Sand.png" inkscape:export-xdpi="90" inkscape:export-ydpi="90" xmlns:inkscape="http://www.inkscape.org/namespaces/inkscape" xmlns:sodipodi="http://sodipodi.sourceforge.net/DTD/sodipodi-0.dtd" xmlns:rdf="http://www.w3.org/1999/02/22-rdf-syntax-ns#" xmlns:svg="http://www.w3.org/2000/svg" xmlns:cc="http://creativecommons.org/ns#" xmlns:dc="http://purl.org/dc/elements/1.1/"
	 xmlns="http://www.w3.org/2000/svg" xmlns:xlink="http://www.w3.org/1999/xlink" x="0px" y="0px" width="50px" height="50px"
	 viewBox="0 0 50 50" enable-background="new 0 0 50 50" xml:space="preserve">
<sodipodi:namedview  pagecolor="#ffffff" bordercolor="#666666" id="base" inkscape:zoom="1.1879394" borderopacity="1.0" inkscape:pageopacity="0.0" inkscape:pageshadow="2" inkscape:cx="-209.03589" inkscape:cy="-16.722453" inkscape:document-units="px" inkscape:current-layer="layer1" showgrid="false" fit-margin-left="0" inkscape:window-width="1600" inkscape:window-height="845" inkscape:window-x="0" inkscape:window-y="27" inkscape:window-maximized="1">
	</sodipodi:namedview>
<g id="layer1" transform="translate(0,-1002.3622)" inkscape:label="Layer 1" inkscape:groupmode="layer">
	
		<rect id="rect5458" y="1002.322" fill="#F2A834" stroke="#000000" stroke-width="0.25" stroke-linecap="square" stroke-linejoin="bevel" stroke-opacity="0.7235" stroke-dasharray="0.0784,0.0784" width="50" height="50.04"/>
	
		<path id="path5460" sodipodi:cx="3.4723995" sodipodi:type="arc" sodipodi:cy="4.2274628" sodipodi:rx="0.31567267" sodipodi:ry="0.42089689" fill="#5B3905" stroke="#000000" stroke-width="0.25" stroke-linecap="square" stroke-linejoin="bevel" stroke-opacity="0.7235" stroke-dasharray="0.0784,0.0784" d="
		M3.592,1006.274c0,0.232-0.142,0.42-0.315,0.42c-0.175,0-0.316-0.188-0.316-0.42c0,0,0,0,0,0c0-0.233,0.141-0.421,0.315-0.421
		C3.45,1005.852,3.592,1006.04,3.592,1006.274L3.592,1006.274z"/>
	
		<path id="path5460-8" sodipodi:cx="3.4723995" sodipodi:type="arc" sodipodi:cy="4.2274628" sodipodi:rx="0.31567267" sodipodi:ry="0.42089689" fill="#5B3905" stroke="#000000" stroke-width="0.25" stroke-linecap="square" stroke-linejoin="bevel" stroke-opacity="0.7235" stroke-dasharray="0.0784,0.0784" d="
		M22.428,1009.117c0,0.233-0.142,0.422-0.316,0.422c-0.173,0-0.314-0.188-0.315-0.421c0,0,0,0,0,0c0-0.233,0.141-0.421,0.315-0.421
		C22.286,1008.695,22.428,1008.884,22.428,1009.117L22.428,1009.117z"/>
	
		<path id="path5460-0" sodipodi:cx="3.4723995" sodipodi:type="arc" sodipodi:cy="4.2274628" sodipodi:rx="0.31567267" sodipodi:ry="0.42089689" fill="#5B3905" stroke="#000000" stroke-width="0.25" stroke-linecap="square" stroke-linejoin="bevel" stroke-opacity="0.7235" stroke-dasharray="0.0784,0.0784" d="
		M21.06,1030.915c0,0.232-0.141,0.422-0.316,0.422c-0.174,0-0.315-0.188-0.315-0.421c0-0.001,0-0.001,0-0.001
		c0-0.232,0.141-0.421,0.315-0.422C20.918,1030.493,21.06,1030.682,21.06,1030.915L21.06,1030.915z"/>
	
		<path id="path5460-7" sodipodi:cx="3.4723995" sodipodi:type="arc" sodipodi:cy="4.2274628" sodipodi:rx="0.31567267" sodipodi:ry="0.42089689" fill="#5B3905" stroke="#000000" stroke-width="0.25" stroke-linecap="square" stroke-linejoin="bevel" stroke-opacity="0.7235" stroke-dasharray="0.0784,0.0784" d="
		M45.262,1042.815c0,0.232-0.14,0.422-0.316,0.422c-0.174,0.001-0.313-0.189-0.313-0.422l0,0c-0.003-0.232,0.14-0.421,0.313-0.421
		C45.121,1042.394,45.262,1042.583,45.262,1042.815L45.262,1042.815z"/>
	
		<path id="path5460-72" sodipodi:cx="3.4723995" sodipodi:type="arc" sodipodi:cy="4.2274628" sodipodi:rx="0.31567267" sodipodi:ry="0.42089689" fill="#5B3905" stroke="#000000" stroke-width="0.25" stroke-linecap="square" stroke-linejoin="bevel" stroke-opacity="0.7235" stroke-dasharray="0.0784,0.0784" d="
		M44.735,1027.44c0,0.232-0.143,0.423-0.315,0.423c-0.174,0-0.317-0.189-0.317-0.422c0,0,0,0,0,0c0-0.232,0.143-0.421,0.317-0.421
		C44.593,1027.019,44.735,1027.207,44.735,1027.44C44.735,1027.44,44.735,1027.44,44.735,1027.44z"/>
	
		<path id="path5460-74" sodipodi:cx="3.4723995" sodipodi:type="arc" sodipodi:cy="4.2274628" sodipodi:rx="0.31567267" sodipodi:ry="0.42089689" fill="#5B3905" stroke="#000000" stroke-width="0.25" stroke-linecap="square" stroke-linejoin="bevel" stroke-opacity="0.7235" stroke-dasharray="0.0784,0.0784" d="
		M35.056,1015.33c0,0.233-0.142,0.421-0.317,0.421c-0.173,0-0.314-0.188-0.314-0.421c0,0,0,0,0,0c0-0.232,0.142-0.421,0.313-0.422
		C34.913,1014.908,35.056,1015.097,35.056,1015.33L35.056,1015.33z"/>
	
		<path id="path5460-4" sodipodi:cx="3.4723995" sodipodi:type="arc" sodipodi:cy="4.2274628" sodipodi:rx="0.31567267" sodipodi:ry="0.42089689" fill="#5B3905" stroke="#000000" stroke-width="0.25" stroke-linecap="square" stroke-linejoin="bevel" stroke-opacity="0.7235" stroke-dasharray="0.0784,0.0784" d="
		M6.223,1041.446c0,0.234-0.141,0.422-0.315,0.422c-0.174,0-0.315-0.188-0.316-0.422l0,0c0-0.232,0.142-0.422,0.316-0.422
		C6.082,1041.024,6.223,1041.214,6.223,1041.446C6.223,1041.445,6.223,1041.445,6.223,1041.446z"/>
	
		<path id="path5460-6" sodipodi:cx="3.4723995" sodipodi:type="arc" sodipodi:cy="4.2274628" sodipodi:rx="0.31567267" sodipodi:ry="0.42089689" fill="#5B3905" stroke="#000000" stroke-width="0.25" stroke-linecap="square" stroke-linejoin="bevel" stroke-opacity="0.7235" stroke-dasharray="0.0784,0.0784" d="
		M7.906,1021.648c0,0.232-0.141,0.421-0.315,0.421c-0.174,0-0.315-0.188-0.316-0.421c0,0,0,0,0,0c0-0.232,0.142-0.421,0.316-0.421
		C7.766,1021.227,7.906,1021.415,7.906,1021.648C7.906,1021.648,7.906,1021.648,7.906,1021.648z"/>
	
		<path id="path5460-9" sodipodi:cx="3.4723995" sodipodi:type="arc" sodipodi:cy="4.2274628" sodipodi:rx="0.31567267" sodipodi:ry="0.42089689" fill="#5B3905" stroke="#000000" stroke-width="0.25" stroke-linecap="square" stroke-linejoin="bevel" stroke-opacity="0.7235" stroke-dasharray="0.0784,0.0784" d="
		M21.375,1043.552c0,0.232-0.14,0.423-0.314,0.423c-0.175,0-0.316-0.189-0.316-0.423l0,0c0-0.231,0.141-0.421,0.316-0.421
		C21.234,1043.131,21.375,1043.32,21.375,1043.552L21.375,1043.552z"/>
	
		<path id="path5460-2" sodipodi:cx="3.4723995" sodipodi:type="arc" sodipodi:cy="4.2274628" sodipodi:rx="0.31567267" sodipodi:ry="0.42089689" fill="#5B3905" stroke="#000000" stroke-width="0.25" stroke-linecap="square" stroke-linejoin="bevel" stroke-opacity="0.7235" stroke-dasharray="0.0784,0.0784" d="
		M43.999,1009.011c0,0.233-0.143,0.421-0.315,0.421c-0.175,0-0.317-0.187-0.317-0.42c0,0,0,0,0,0c0-0.232,0.143-0.421,0.317-0.422
		C43.856,1008.589,43.999,1008.778,43.999,1009.011L43.999,1009.011z"/>
</g>
</svg>
